<mxfile host="app.diagrams.net" agent="Mozilla/5.0 (X11; Linux x86_64) AppleWebKit/537.36 (KHTML, like Gecko) Chrome/133.0.0.0 Safari/537.36" version="27.0.6">
  <diagram name="Page-1" id="7U1X7uFGqsOA9vyklkG4">
    <mxGraphModel dx="1343" dy="745" grid="1" gridSize="10" guides="1" tooltips="1" connect="1" arrows="1" fold="1" page="1" pageScale="1" pageWidth="120" pageHeight="200" math="0" shadow="0">
      <root>
        <mxCell id="0" />
        <mxCell id="1" parent="0" />
        <mxCell id="vQja3zcPBgWwOKAa9QhB-1" value="Guest" style="shape=umlActor;verticalLabelPosition=bottom;verticalAlign=top;html=1;outlineConnect=0;labelBackgroundColor=none;rounded=0;" parent="1" vertex="1">
          <mxGeometry x="30" y="320" width="30" height="60" as="geometry" />
        </mxCell>
        <mxCell id="vQja3zcPBgWwOKAa9QhB-3" value="Check real-time status" style="ellipse;whiteSpace=wrap;html=1;labelBackgroundColor=none;rounded=0;" parent="1" vertex="1">
          <mxGeometry x="140" y="215" width="100" height="50" as="geometry" />
        </mxCell>
        <mxCell id="vQja3zcPBgWwOKAa9QhB-4" value="Search for a trip" style="ellipse;whiteSpace=wrap;html=1;labelBackgroundColor=none;rounded=0;" parent="1" vertex="1">
          <mxGeometry x="140" y="280" width="100" height="50" as="geometry" />
        </mxCell>
        <mxCell id="vQja3zcPBgWwOKAa9QhB-11" value="" style="edgeStyle=orthogonalEdgeStyle;rounded=0;orthogonalLoop=1;jettySize=auto;html=1;endArrow=none;startFill=0;labelBackgroundColor=none;fontColor=default;" parent="1" source="vQja3zcPBgWwOKAa9QhB-5" edge="1">
          <mxGeometry relative="1" as="geometry">
            <mxPoint x="100" y="300" as="targetPoint" />
          </mxGeometry>
        </mxCell>
        <mxCell id="vQja3zcPBgWwOKAa9QhB-5" value="Register an account" style="ellipse;whiteSpace=wrap;html=1;labelBackgroundColor=none;rounded=0;" parent="1" vertex="1">
          <mxGeometry x="140" y="340" width="100" height="50" as="geometry" />
        </mxCell>
        <mxCell id="vQja3zcPBgWwOKAa9QhB-12" style="edgeStyle=orthogonalEdgeStyle;rounded=0;orthogonalLoop=1;jettySize=auto;html=1;endArrow=none;startFill=0;labelBackgroundColor=none;fontColor=default;" parent="1" source="vQja3zcPBgWwOKAa9QhB-6" edge="1">
          <mxGeometry relative="1" as="geometry">
            <mxPoint x="100" y="330" as="targetPoint" />
          </mxGeometry>
        </mxCell>
        <mxCell id="vQja3zcPBgWwOKAa9QhB-6" value="Login" style="ellipse;whiteSpace=wrap;html=1;labelBackgroundColor=none;rounded=0;" parent="1" vertex="1">
          <mxGeometry x="140" y="400" width="100" height="50" as="geometry" />
        </mxCell>
        <mxCell id="vQja3zcPBgWwOKAa9QhB-8" style="edgeStyle=orthogonalEdgeStyle;rounded=0;orthogonalLoop=1;jettySize=auto;html=1;entryX=1;entryY=0.3333333333333333;entryDx=0;entryDy=0;entryPerimeter=0;endArrow=none;startFill=0;labelBackgroundColor=none;fontColor=default;" parent="1" source="vQja3zcPBgWwOKAa9QhB-3" target="vQja3zcPBgWwOKAa9QhB-1" edge="1">
          <mxGeometry relative="1" as="geometry" />
        </mxCell>
        <mxCell id="vQja3zcPBgWwOKAa9QhB-9" style="edgeStyle=orthogonalEdgeStyle;rounded=0;orthogonalLoop=1;jettySize=auto;html=1;entryX=1;entryY=0.3333333333333333;entryDx=0;entryDy=0;entryPerimeter=0;endArrow=none;startFill=0;labelBackgroundColor=none;fontColor=default;" parent="1" source="vQja3zcPBgWwOKAa9QhB-4" target="vQja3zcPBgWwOKAa9QhB-1" edge="1">
          <mxGeometry relative="1" as="geometry" />
        </mxCell>
        <mxCell id="vQja3zcPBgWwOKAa9QhB-13" value="Delays" style="ellipse;whiteSpace=wrap;html=1;labelBackgroundColor=none;rounded=0;" parent="1" vertex="1">
          <mxGeometry x="280" y="170" width="90" height="40" as="geometry" />
        </mxCell>
        <mxCell id="vQja3zcPBgWwOKAa9QhB-14" value="Arrival Time" style="ellipse;whiteSpace=wrap;html=1;labelBackgroundColor=none;rounded=0;" parent="1" vertex="1">
          <mxGeometry x="280" y="270" width="90" height="40" as="geometry" />
        </mxCell>
        <mxCell id="vQja3zcPBgWwOKAa9QhB-15" value="Metro Map" style="ellipse;whiteSpace=wrap;html=1;labelBackgroundColor=none;rounded=0;" parent="1" vertex="1">
          <mxGeometry x="280" y="220" width="90" height="40" as="geometry" />
        </mxCell>
        <mxCell id="vQja3zcPBgWwOKAa9QhB-18" value="" style="edgeStyle=none;html=1;endArrow=block;endFill=0;endSize=12;verticalAlign=bottom;rounded=0;exitX=0;exitY=0.5;exitDx=0;exitDy=0;entryX=1;entryY=0.5;entryDx=0;entryDy=0;labelBackgroundColor=none;fontColor=default;" parent="1" source="vQja3zcPBgWwOKAa9QhB-13" target="vQja3zcPBgWwOKAa9QhB-3" edge="1">
          <mxGeometry width="160" relative="1" as="geometry">
            <mxPoint x="200" y="330" as="sourcePoint" />
            <mxPoint x="360" y="330" as="targetPoint" />
          </mxGeometry>
        </mxCell>
        <mxCell id="vQja3zcPBgWwOKAa9QhB-19" value="" style="edgeStyle=none;html=1;endArrow=block;endFill=0;endSize=12;verticalAlign=bottom;rounded=0;labelBackgroundColor=none;fontColor=default;" parent="1" source="vQja3zcPBgWwOKAa9QhB-15" edge="1">
          <mxGeometry width="160" relative="1" as="geometry">
            <mxPoint x="510" y="290" as="sourcePoint" />
            <mxPoint x="240" y="240" as="targetPoint" />
          </mxGeometry>
        </mxCell>
        <mxCell id="vQja3zcPBgWwOKAa9QhB-20" value="" style="edgeStyle=none;html=1;endArrow=block;endFill=0;endSize=12;verticalAlign=bottom;rounded=0;exitX=0;exitY=0.5;exitDx=0;exitDy=0;entryX=1;entryY=0.5;entryDx=0;entryDy=0;labelBackgroundColor=none;fontColor=default;" parent="1" source="vQja3zcPBgWwOKAa9QhB-14" target="vQja3zcPBgWwOKAa9QhB-3" edge="1">
          <mxGeometry width="160" relative="1" as="geometry">
            <mxPoint x="520" y="310" as="sourcePoint" />
            <mxPoint x="480" y="360" as="targetPoint" />
          </mxGeometry>
        </mxCell>
        <mxCell id="vQja3zcPBgWwOKAa9QhB-21" value="Commuter" style="shape=umlActor;html=1;verticalLabelPosition=bottom;verticalAlign=top;align=center;labelBackgroundColor=none;rounded=0;" parent="1" vertex="1">
          <mxGeometry x="30" y="580" width="30" height="60" as="geometry" />
        </mxCell>
        <mxCell id="vQja3zcPBgWwOKAa9QhB-23" value="Access Metro" style="ellipse;whiteSpace=wrap;html=1;labelBackgroundColor=none;rounded=0;" parent="1" vertex="1">
          <mxGeometry x="140" y="520" width="100" height="50" as="geometry" />
        </mxCell>
        <mxCell id="vQja3zcPBgWwOKAa9QhB-24" value="Submit a report" style="ellipse;whiteSpace=wrap;html=1;labelBackgroundColor=none;rounded=0;" parent="1" vertex="1">
          <mxGeometry x="130" y="890" width="100" height="50" as="geometry" />
        </mxCell>
        <mxCell id="vQja3zcPBgWwOKAa9QhB-25" value="Receive notifications" style="ellipse;whiteSpace=wrap;html=1;labelBackgroundColor=none;rounded=0;" parent="1" vertex="1">
          <mxGeometry x="130" y="810" width="100" height="50" as="geometry" />
        </mxCell>
        <mxCell id="vQja3zcPBgWwOKAa9QhB-26" value="Check Balance" style="ellipse;whiteSpace=wrap;html=1;labelBackgroundColor=none;rounded=0;" parent="1" vertex="1">
          <mxGeometry x="140" y="730" width="100" height="50" as="geometry" />
        </mxCell>
        <mxCell id="vQja3zcPBgWwOKAa9QhB-27" value="Book a trip" style="ellipse;whiteSpace=wrap;html=1;labelBackgroundColor=none;rounded=0;" parent="1" vertex="1">
          <mxGeometry x="140" y="650" width="100" height="50" as="geometry" />
        </mxCell>
        <mxCell id="vQja3zcPBgWwOKAa9QhB-28" value="" style="edgeStyle=none;html=1;endArrow=none;verticalAlign=bottom;rounded=0;exitX=1;exitY=0.3333333333333333;exitDx=0;exitDy=0;exitPerimeter=0;entryX=0;entryY=0.5;entryDx=0;entryDy=0;labelBackgroundColor=none;fontColor=default;" parent="1" source="vQja3zcPBgWwOKAa9QhB-21" target="vQja3zcPBgWwOKAa9QhB-23" edge="1">
          <mxGeometry width="160" relative="1" as="geometry">
            <mxPoint x="50" y="630" as="sourcePoint" />
            <mxPoint x="210" y="630" as="targetPoint" />
          </mxGeometry>
        </mxCell>
        <mxCell id="vQja3zcPBgWwOKAa9QhB-29" value="" style="edgeStyle=none;html=1;endArrow=none;verticalAlign=bottom;rounded=0;exitX=1;exitY=0.3333333333333333;exitDx=0;exitDy=0;exitPerimeter=0;entryX=0;entryY=0.5;entryDx=0;entryDy=0;labelBackgroundColor=none;fontColor=default;" parent="1" source="vQja3zcPBgWwOKAa9QhB-21" target="vQja3zcPBgWwOKAa9QhB-27" edge="1">
          <mxGeometry width="160" relative="1" as="geometry">
            <mxPoint x="340" y="615" as="sourcePoint" />
            <mxPoint x="420" y="560" as="targetPoint" />
          </mxGeometry>
        </mxCell>
        <mxCell id="vQja3zcPBgWwOKAa9QhB-30" value="" style="edgeStyle=none;html=1;endArrow=none;verticalAlign=bottom;rounded=0;exitX=1;exitY=0.3333333333333333;exitDx=0;exitDy=0;exitPerimeter=0;entryX=0;entryY=0.5;entryDx=0;entryDy=0;labelBackgroundColor=none;fontColor=default;" parent="1" source="vQja3zcPBgWwOKAa9QhB-21" target="vQja3zcPBgWwOKAa9QhB-26" edge="1">
          <mxGeometry width="160" relative="1" as="geometry">
            <mxPoint x="360" y="615" as="sourcePoint" />
            <mxPoint x="440" y="560" as="targetPoint" />
          </mxGeometry>
        </mxCell>
        <mxCell id="vQja3zcPBgWwOKAa9QhB-31" value="" style="edgeStyle=none;html=1;endArrow=none;verticalAlign=bottom;rounded=0;entryX=0;entryY=0.5;entryDx=0;entryDy=0;exitX=1;exitY=0.3333333333333333;exitDx=0;exitDy=0;exitPerimeter=0;labelBackgroundColor=none;fontColor=default;" parent="1" source="vQja3zcPBgWwOKAa9QhB-21" target="vQja3zcPBgWwOKAa9QhB-25" edge="1">
          <mxGeometry width="160" relative="1" as="geometry">
            <mxPoint x="390" y="625" as="sourcePoint" />
            <mxPoint x="470" y="570" as="targetPoint" />
          </mxGeometry>
        </mxCell>
        <mxCell id="vQja3zcPBgWwOKAa9QhB-32" value="" style="edgeStyle=none;html=1;endArrow=none;verticalAlign=bottom;rounded=0;exitX=1;exitY=0.3333333333333333;exitDx=0;exitDy=0;exitPerimeter=0;entryX=0;entryY=0.5;entryDx=0;entryDy=0;labelBackgroundColor=none;fontColor=default;" parent="1" source="vQja3zcPBgWwOKAa9QhB-21" target="vQja3zcPBgWwOKAa9QhB-24" edge="1">
          <mxGeometry width="160" relative="1" as="geometry">
            <mxPoint x="510" y="635" as="sourcePoint" />
            <mxPoint x="590" y="580" as="targetPoint" />
          </mxGeometry>
        </mxCell>
        <mxCell id="vQja3zcPBgWwOKAa9QhB-33" value="" style="edgeStyle=none;html=1;endArrow=block;endFill=0;endSize=12;verticalAlign=bottom;rounded=0;entryX=1;entryY=0.5;entryDx=0;entryDy=0;labelBackgroundColor=none;fontColor=default;" parent="1" target="vQja3zcPBgWwOKAa9QhB-23" edge="1">
          <mxGeometry width="160" relative="1" as="geometry">
            <mxPoint x="270" y="490" as="sourcePoint" />
            <mxPoint x="240" y="630" as="targetPoint" />
          </mxGeometry>
        </mxCell>
        <mxCell id="vQja3zcPBgWwOKAa9QhB-34" value="" style="edgeStyle=none;html=1;endArrow=block;endFill=0;endSize=12;verticalAlign=bottom;rounded=0;entryX=1;entryY=0.5;entryDx=0;entryDy=0;labelBackgroundColor=none;fontColor=default;" parent="1" target="vQja3zcPBgWwOKAa9QhB-23" edge="1">
          <mxGeometry width="160" relative="1" as="geometry">
            <mxPoint x="280" y="570" as="sourcePoint" />
            <mxPoint x="370" y="605" as="targetPoint" />
          </mxGeometry>
        </mxCell>
        <mxCell id="vQja3zcPBgWwOKAa9QhB-36" value="NFC" style="ellipse;whiteSpace=wrap;html=1;labelBackgroundColor=none;rounded=0;" parent="1" vertex="1">
          <mxGeometry x="260" y="550" width="90" height="40" as="geometry" />
        </mxCell>
        <mxCell id="vQja3zcPBgWwOKAa9QhB-37" value="Metro Card" style="ellipse;whiteSpace=wrap;html=1;labelBackgroundColor=none;rounded=0;" parent="1" vertex="1">
          <mxGeometry x="260" y="460" width="90" height="40" as="geometry" />
        </mxCell>
        <mxCell id="vQja3zcPBgWwOKAa9QhB-38" value="&amp;lt;&amp;lt;include&amp;gt;&amp;gt;" style="edgeStyle=none;html=1;endArrow=open;verticalAlign=bottom;dashed=1;labelBackgroundColor=none;rounded=0;exitX=1;exitY=0.5;exitDx=0;exitDy=0;entryX=1;entryY=0.5;entryDx=0;entryDy=0;fontColor=default;" parent="1" source="vQja3zcPBgWwOKAa9QhB-27" target="vQja3zcPBgWwOKAa9QhB-26" edge="1">
          <mxGeometry x="-0.0719" y="30" width="160" relative="1" as="geometry">
            <mxPoint x="330" y="720" as="sourcePoint" />
            <mxPoint x="490" y="720" as="targetPoint" />
            <Array as="points">
              <mxPoint x="270" y="680" />
              <mxPoint x="280" y="710" />
              <mxPoint x="270" y="750" />
            </Array>
            <mxPoint x="1" y="-7" as="offset" />
          </mxGeometry>
        </mxCell>
        <mxCell id="vQja3zcPBgWwOKAa9QhB-39" value="&amp;lt;&amp;lt;extend&amp;gt;&amp;gt;" style="edgeStyle=none;html=1;startArrow=open;endArrow=none;startSize=12;verticalAlign=bottom;dashed=1;labelBackgroundColor=none;rounded=0;exitX=1;exitY=0.5;exitDx=0;exitDy=0;fontColor=default;" parent="1" source="vQja3zcPBgWwOKAa9QhB-26" edge="1">
          <mxGeometry x="-0.1506" y="-26" width="160" relative="1" as="geometry">
            <mxPoint x="240" y="750" as="sourcePoint" />
            <mxPoint x="420" y="730" as="targetPoint" />
            <mxPoint as="offset" />
          </mxGeometry>
        </mxCell>
        <mxCell id="vQja3zcPBgWwOKAa9QhB-40" value="Recharge Balance" style="ellipse;whiteSpace=wrap;html=1;labelBackgroundColor=none;rounded=0;" parent="1" vertex="1">
          <mxGeometry x="360" y="710" width="100" height="50" as="geometry" />
        </mxCell>
        <mxCell id="vQja3zcPBgWwOKAa9QhB-41" value="" style="edgeStyle=none;html=1;endArrow=block;endFill=0;endSize=12;verticalAlign=bottom;rounded=0;entryX=1;entryY=0.5;entryDx=0;entryDy=0;labelBackgroundColor=none;fontColor=default;" parent="1" target="vQja3zcPBgWwOKAa9QhB-40" edge="1">
          <mxGeometry width="160" relative="1" as="geometry">
            <mxPoint x="500" y="710" as="sourcePoint" />
            <mxPoint x="600" y="750" as="targetPoint" />
          </mxGeometry>
        </mxCell>
        <mxCell id="vQja3zcPBgWwOKAa9QhB-43" value="Cash" style="ellipse;whiteSpace=wrap;html=1;labelBackgroundColor=none;rounded=0;" parent="1" vertex="1">
          <mxGeometry x="500" y="680" width="100" height="50" as="geometry" />
        </mxCell>
        <mxCell id="vQja3zcPBgWwOKAa9QhB-44" value="" style="edgeStyle=none;html=1;endArrow=block;endFill=0;endSize=12;verticalAlign=bottom;rounded=0;entryX=1;entryY=0.5;entryDx=0;entryDy=0;exitX=0;exitY=0.5;exitDx=0;exitDy=0;labelBackgroundColor=none;fontColor=default;" parent="1" source="vQja3zcPBgWwOKAa9QhB-47" target="vQja3zcPBgWwOKAa9QhB-40" edge="1">
          <mxGeometry width="160" relative="1" as="geometry">
            <mxPoint x="490" y="770" as="sourcePoint" />
            <mxPoint x="570" y="790" as="targetPoint" />
          </mxGeometry>
        </mxCell>
        <mxCell id="vQja3zcPBgWwOKAa9QhB-47" value="Credit Card" style="ellipse;whiteSpace=wrap;html=1;labelBackgroundColor=none;rounded=0;" parent="1" vertex="1">
          <mxGeometry x="500" y="750" width="100" height="50" as="geometry" />
        </mxCell>
        <mxCell id="vQja3zcPBgWwOKAa9QhB-48" value="&amp;lt;&amp;lt;extend&amp;gt;&amp;gt;" style="edgeStyle=none;html=1;startArrow=open;endArrow=none;startSize=12;verticalAlign=bottom;dashed=1;labelBackgroundColor=none;rounded=0;exitX=1;exitY=0.5;exitDx=0;exitDy=0;entryX=0;entryY=0.5;entryDx=0;entryDy=0;fontColor=default;" parent="1" source="vQja3zcPBgWwOKAa9QhB-24" target="vQja3zcPBgWwOKAa9QhB-49" edge="1">
          <mxGeometry width="160" relative="1" as="geometry">
            <mxPoint x="380" y="790" as="sourcePoint" />
            <mxPoint x="300" y="880" as="targetPoint" />
          </mxGeometry>
        </mxCell>
        <mxCell id="vQja3zcPBgWwOKAa9QhB-49" value="Submit Anonymously" style="ellipse;whiteSpace=wrap;html=1;labelBackgroundColor=none;rounded=0;" parent="1" vertex="1">
          <mxGeometry x="300" y="850" width="100" height="50" as="geometry" />
        </mxCell>
        <mxCell id="vQja3zcPBgWwOKAa9QhB-54" value="&lt;font style=&quot;font-size: 14px;&quot;&gt;Tunis Track Authentication System&lt;/font&gt;" style="shape=rect;html=1;verticalAlign=top;fontStyle=1;whiteSpace=wrap;align=center;labelBackgroundColor=none;rounded=0;" parent="1" vertex="1">
          <mxGeometry x="980" y="360" width="150" height="70" as="geometry" />
        </mxCell>
        <mxCell id="vQja3zcPBgWwOKAa9QhB-55" value="Authentication handling&amp;nbsp;" style="ellipse;whiteSpace=wrap;html=1;labelBackgroundColor=none;rounded=0;" parent="1" vertex="1">
          <mxGeometry x="730" y="390" width="100" height="50" as="geometry" />
        </mxCell>
        <mxCell id="vQja3zcPBgWwOKAa9QhB-56" value="" style="edgeStyle=none;html=1;endArrow=none;verticalAlign=bottom;rounded=0;exitX=1;exitY=0.5;exitDx=0;exitDy=0;entryX=0;entryY=0.5;entryDx=0;entryDy=0;labelBackgroundColor=none;fontColor=default;" parent="1" source="vQja3zcPBgWwOKAa9QhB-55" target="vQja3zcPBgWwOKAa9QhB-54" edge="1">
          <mxGeometry width="160" relative="1" as="geometry">
            <mxPoint x="820" y="410" as="sourcePoint" />
            <mxPoint x="980" y="410" as="targetPoint" />
          </mxGeometry>
        </mxCell>
        <mxCell id="vQja3zcPBgWwOKAa9QhB-57" value="" style="edgeStyle=none;html=1;endArrow=block;endFill=0;endSize=12;verticalAlign=bottom;rounded=0;exitX=1;exitY=0.5;exitDx=0;exitDy=0;labelBackgroundColor=none;fontColor=default;" parent="1" source="vQja3zcPBgWwOKAa9QhB-62" edge="1">
          <mxGeometry width="160" relative="1" as="geometry">
            <mxPoint x="670" y="390" as="sourcePoint" />
            <mxPoint x="730" y="414.66999999999996" as="targetPoint" />
          </mxGeometry>
        </mxCell>
        <mxCell id="vQja3zcPBgWwOKAa9QhB-58" value="" style="edgeStyle=none;html=1;endArrow=block;endFill=0;endSize=12;verticalAlign=bottom;rounded=0;entryX=0;entryY=0.5;entryDx=0;entryDy=0;exitX=1;exitY=0.5;exitDx=0;exitDy=0;labelBackgroundColor=none;fontColor=default;" parent="1" source="vQja3zcPBgWwOKAa9QhB-60" target="vQja3zcPBgWwOKAa9QhB-55" edge="1">
          <mxGeometry width="160" relative="1" as="geometry">
            <mxPoint x="670" y="440" as="sourcePoint" />
            <mxPoint x="730" y="420" as="targetPoint" />
          </mxGeometry>
        </mxCell>
        <mxCell id="vQja3zcPBgWwOKAa9QhB-60" value="Deny Entry" style="ellipse;whiteSpace=wrap;html=1;labelBackgroundColor=none;rounded=0;" parent="1" vertex="1">
          <mxGeometry x="570" y="420" width="100" height="50" as="geometry" />
        </mxCell>
        <mxCell id="vQja3zcPBgWwOKAa9QhB-62" value="Approve Entry" style="ellipse;whiteSpace=wrap;html=1;labelBackgroundColor=none;rounded=0;" parent="1" vertex="1">
          <mxGeometry x="570" y="360" width="100" height="50" as="geometry" />
        </mxCell>
        <mxCell id="vQja3zcPBgWwOKAa9QhB-63" value="&amp;lt;&amp;lt;include&amp;gt;&amp;gt;" style="edgeStyle=none;html=1;endArrow=open;verticalAlign=bottom;dashed=1;labelBackgroundColor=none;rounded=0;entryX=0;entryY=0.5;entryDx=0;entryDy=0;fontColor=default;" parent="1" target="vQja3zcPBgWwOKAa9QhB-62" edge="1">
          <mxGeometry x="0.054" y="9" width="160" relative="1" as="geometry">
            <mxPoint x="240" y="540" as="sourcePoint" />
            <mxPoint x="480" y="410" as="targetPoint" />
            <mxPoint as="offset" />
          </mxGeometry>
        </mxCell>
        <mxCell id="vQja3zcPBgWwOKAa9QhB-64" value="&lt;font style=&quot;font-size: 16px;&quot;&gt;Kiosk&lt;/font&gt;" style="shape=rect;html=1;verticalAlign=top;fontStyle=1;whiteSpace=wrap;align=center;labelBackgroundColor=none;rounded=0;" parent="1" vertex="1">
          <mxGeometry x="980" y="650" width="150" height="40" as="geometry" />
        </mxCell>
        <mxCell id="vQja3zcPBgWwOKAa9QhB-65" value="" style="edgeStyle=none;html=1;endArrow=none;verticalAlign=bottom;rounded=0;exitX=1;exitY=0.5;exitDx=0;exitDy=0;labelBackgroundColor=none;fontColor=default;" parent="1" source="vQja3zcPBgWwOKAa9QhB-68" edge="1">
          <mxGeometry width="160" relative="1" as="geometry">
            <mxPoint x="650" y="670" as="sourcePoint" />
            <mxPoint x="970" y="670" as="targetPoint" />
          </mxGeometry>
        </mxCell>
        <mxCell id="vQja3zcPBgWwOKAa9QhB-66" value="" style="edgeStyle=none;html=1;endArrow=none;verticalAlign=bottom;rounded=0;entryX=0;entryY=0.5;entryDx=0;entryDy=0;exitX=1;exitY=0.5;exitDx=0;exitDy=0;labelBackgroundColor=none;fontColor=default;" parent="1" source="vQja3zcPBgWwOKAa9QhB-67" target="vQja3zcPBgWwOKAa9QhB-64" edge="1">
          <mxGeometry width="160" relative="1" as="geometry">
            <mxPoint x="650" y="670" as="sourcePoint" />
            <mxPoint x="810" y="670" as="targetPoint" />
          </mxGeometry>
        </mxCell>
        <mxCell id="vQja3zcPBgWwOKAa9QhB-67" value="Issue new card" style="ellipse;whiteSpace=wrap;html=1;labelBackgroundColor=none;rounded=0;" parent="1" vertex="1">
          <mxGeometry x="820" y="600" width="100" height="50" as="geometry" />
        </mxCell>
        <mxCell id="vQja3zcPBgWwOKAa9QhB-68" value="Handle cash payment" style="ellipse;whiteSpace=wrap;html=1;labelBackgroundColor=none;rounded=0;" parent="1" vertex="1">
          <mxGeometry x="820" y="690" width="100" height="50" as="geometry" />
        </mxCell>
        <mxCell id="vQja3zcPBgWwOKAa9QhB-69" value="&amp;lt;&amp;lt;include&amp;gt;&amp;gt;" style="edgeStyle=none;html=1;endArrow=open;verticalAlign=bottom;dashed=1;labelBackgroundColor=none;rounded=0;exitX=1;exitY=0.5;exitDx=0;exitDy=0;entryX=0;entryY=0.5;entryDx=0;entryDy=0;fontColor=default;" parent="1" source="vQja3zcPBgWwOKAa9QhB-43" target="vQja3zcPBgWwOKAa9QhB-68" edge="1">
          <mxGeometry width="160" relative="1" as="geometry">
            <mxPoint x="690" y="670" as="sourcePoint" />
            <mxPoint x="850" y="670" as="targetPoint" />
          </mxGeometry>
        </mxCell>
        <mxCell id="vQja3zcPBgWwOKAa9QhB-70" value="Admin&lt;div&gt;&lt;br&gt;&lt;/div&gt;" style="shape=umlActor;html=1;verticalLabelPosition=bottom;verticalAlign=top;align=center;labelBackgroundColor=none;rounded=0;" parent="1" vertex="1">
          <mxGeometry x="30" y="1130" width="30" height="60" as="geometry" />
        </mxCell>
        <mxCell id="vQja3zcPBgWwOKAa9QhB-71" value="Manage Metro Fleet" style="ellipse;whiteSpace=wrap;html=1;labelBackgroundColor=none;rounded=0;" parent="1" vertex="1">
          <mxGeometry x="130" y="1130" width="100" height="50" as="geometry" />
        </mxCell>
        <mxCell id="vQja3zcPBgWwOKAa9QhB-72" value="Manage Schedules" style="ellipse;whiteSpace=wrap;html=1;labelBackgroundColor=none;rounded=0;" parent="1" vertex="1">
          <mxGeometry x="130" y="1060" width="100" height="50" as="geometry" />
        </mxCell>
        <mxCell id="vQja3zcPBgWwOKAa9QhB-73" value="Check Reports" style="ellipse;whiteSpace=wrap;html=1;labelBackgroundColor=none;rounded=0;" parent="1" vertex="1">
          <mxGeometry x="130" y="1200" width="100" height="50" as="geometry" />
        </mxCell>
        <mxCell id="vQja3zcPBgWwOKAa9QhB-74" value="Manage Employees" style="ellipse;whiteSpace=wrap;html=1;labelBackgroundColor=none;rounded=0;" parent="1" vertex="1">
          <mxGeometry x="130" y="1270" width="100" height="50" as="geometry" />
        </mxCell>
        <mxCell id="vQja3zcPBgWwOKAa9QhB-75" value="" style="edgeStyle=none;html=1;endArrow=none;verticalAlign=bottom;rounded=0;exitX=1;exitY=0.3333333333333333;exitDx=0;exitDy=0;exitPerimeter=0;entryX=0;entryY=0.5;entryDx=0;entryDy=0;labelBackgroundColor=none;fontColor=default;" parent="1" source="vQja3zcPBgWwOKAa9QhB-70" target="vQja3zcPBgWwOKAa9QhB-72" edge="1">
          <mxGeometry width="160" relative="1" as="geometry">
            <mxPoint x="150" y="1110" as="sourcePoint" />
            <mxPoint x="310" y="1110" as="targetPoint" />
          </mxGeometry>
        </mxCell>
        <mxCell id="vQja3zcPBgWwOKAa9QhB-76" value="" style="edgeStyle=none;html=1;endArrow=none;verticalAlign=bottom;rounded=0;exitX=1;exitY=0.3333333333333333;exitDx=0;exitDy=0;exitPerimeter=0;entryX=0;entryY=0.5;entryDx=0;entryDy=0;labelBackgroundColor=none;fontColor=default;" parent="1" source="vQja3zcPBgWwOKAa9QhB-70" target="vQja3zcPBgWwOKAa9QhB-74" edge="1">
          <mxGeometry width="160" relative="1" as="geometry">
            <mxPoint x="330" y="1125" as="sourcePoint" />
            <mxPoint x="400" y="1060" as="targetPoint" />
          </mxGeometry>
        </mxCell>
        <mxCell id="vQja3zcPBgWwOKAa9QhB-77" value="" style="edgeStyle=none;html=1;endArrow=none;verticalAlign=bottom;rounded=0;exitX=1;exitY=0.3333333333333333;exitDx=0;exitDy=0;exitPerimeter=0;entryX=0;entryY=0.5;entryDx=0;entryDy=0;labelBackgroundColor=none;fontColor=default;" parent="1" source="vQja3zcPBgWwOKAa9QhB-70" target="vQja3zcPBgWwOKAa9QhB-73" edge="1">
          <mxGeometry width="160" relative="1" as="geometry">
            <mxPoint x="340" y="1125" as="sourcePoint" />
            <mxPoint x="410" y="1060" as="targetPoint" />
          </mxGeometry>
        </mxCell>
        <mxCell id="vQja3zcPBgWwOKAa9QhB-78" value="" style="edgeStyle=none;html=1;endArrow=none;verticalAlign=bottom;rounded=0;exitX=1;exitY=0.3333333333333333;exitDx=0;exitDy=0;exitPerimeter=0;entryX=0;entryY=0.5;entryDx=0;entryDy=0;labelBackgroundColor=none;fontColor=default;" parent="1" source="vQja3zcPBgWwOKAa9QhB-70" target="vQja3zcPBgWwOKAa9QhB-71" edge="1">
          <mxGeometry width="160" relative="1" as="geometry">
            <mxPoint x="340" y="1145" as="sourcePoint" />
            <mxPoint x="410" y="1080" as="targetPoint" />
          </mxGeometry>
        </mxCell>
        <mxCell id="vQja3zcPBgWwOKAa9QhB-79" value="Assign a technician" style="ellipse;whiteSpace=wrap;html=1;labelBackgroundColor=none;rounded=0;" parent="1" vertex="1">
          <mxGeometry x="350" y="1200" width="100" height="50" as="geometry" />
        </mxCell>
        <mxCell id="vQja3zcPBgWwOKAa9QhB-81" value="&amp;lt;&amp;lt;extend&amp;gt;&amp;gt;" style="edgeStyle=none;html=1;startArrow=open;endArrow=none;startSize=12;verticalAlign=bottom;dashed=1;labelBackgroundColor=none;rounded=0;exitX=1;exitY=0.5;exitDx=0;exitDy=0;entryX=0;entryY=0.5;entryDx=0;entryDy=0;fontColor=default;" parent="1" source="vQja3zcPBgWwOKAa9QhB-73" target="vQja3zcPBgWwOKAa9QhB-79" edge="1">
          <mxGeometry width="160" relative="1" as="geometry">
            <mxPoint x="150" y="1110" as="sourcePoint" />
            <mxPoint x="310" y="1110" as="targetPoint" />
          </mxGeometry>
        </mxCell>
        <mxCell id="vQja3zcPBgWwOKAa9QhB-82" value="Technician" style="shape=umlActor;html=1;verticalLabelPosition=bottom;verticalAlign=top;align=center;labelBackgroundColor=none;rounded=0;" parent="1" vertex="1">
          <mxGeometry x="1040" y="1130" width="30" height="60" as="geometry" />
        </mxCell>
        <mxCell id="vQja3zcPBgWwOKAa9QhB-83" value="Check assigned tasks" style="ellipse;whiteSpace=wrap;html=1;labelBackgroundColor=none;rounded=0;" parent="1" vertex="1">
          <mxGeometry x="810" y="1110" width="100" height="50" as="geometry" />
        </mxCell>
        <mxCell id="vQja3zcPBgWwOKAa9QhB-84" value="Log Maintenance" style="ellipse;whiteSpace=wrap;html=1;labelBackgroundColor=none;rounded=0;" parent="1" vertex="1">
          <mxGeometry x="810" y="1220" width="100" height="50" as="geometry" />
        </mxCell>
        <mxCell id="vQja3zcPBgWwOKAa9QhB-85" value="" style="edgeStyle=none;html=1;endArrow=none;verticalAlign=bottom;rounded=0;exitX=1;exitY=0.5;exitDx=0;exitDy=0;entryX=0;entryY=0.3333333333333333;entryDx=0;entryDy=0;entryPerimeter=0;labelBackgroundColor=none;fontColor=default;" parent="1" source="vQja3zcPBgWwOKAa9QhB-83" target="vQja3zcPBgWwOKAa9QhB-82" edge="1">
          <mxGeometry width="160" relative="1" as="geometry">
            <mxPoint x="780" y="1130" as="sourcePoint" />
            <mxPoint x="940" y="1130" as="targetPoint" />
          </mxGeometry>
        </mxCell>
        <mxCell id="vQja3zcPBgWwOKAa9QhB-86" value="" style="edgeStyle=none;html=1;endArrow=none;verticalAlign=bottom;rounded=0;exitX=1;exitY=0.5;exitDx=0;exitDy=0;entryX=0;entryY=0.3333333333333333;entryDx=0;entryDy=0;entryPerimeter=0;labelBackgroundColor=none;fontColor=default;" parent="1" source="vQja3zcPBgWwOKAa9QhB-84" target="vQja3zcPBgWwOKAa9QhB-82" edge="1">
          <mxGeometry width="160" relative="1" as="geometry">
            <mxPoint x="860" y="1130" as="sourcePoint" />
            <mxPoint x="940" y="1145" as="targetPoint" />
          </mxGeometry>
        </mxCell>
        <mxCell id="vQja3zcPBgWwOKAa9QhB-88" value="Fixed" style="ellipse;whiteSpace=wrap;html=1;labelBackgroundColor=none;rounded=0;" parent="1" vertex="1">
          <mxGeometry x="670" y="1190" width="80" height="40" as="geometry" />
        </mxCell>
        <mxCell id="vQja3zcPBgWwOKAa9QhB-89" value="Pending" style="ellipse;whiteSpace=wrap;html=1;labelBackgroundColor=none;rounded=0;" parent="1" vertex="1">
          <mxGeometry x="670" y="1270" width="80" height="40" as="geometry" />
        </mxCell>
        <mxCell id="vQja3zcPBgWwOKAa9QhB-90" value="" style="edgeStyle=none;html=1;endArrow=block;endFill=0;endSize=12;verticalAlign=bottom;rounded=0;entryX=0;entryY=0.5;entryDx=0;entryDy=0;exitX=1;exitY=0.5;exitDx=0;exitDy=0;labelBackgroundColor=none;fontColor=default;" parent="1" source="vQja3zcPBgWwOKAa9QhB-88" target="vQja3zcPBgWwOKAa9QhB-84" edge="1">
          <mxGeometry width="160" relative="1" as="geometry">
            <mxPoint x="550" y="1210" as="sourcePoint" />
            <mxPoint x="710" y="1210" as="targetPoint" />
          </mxGeometry>
        </mxCell>
        <mxCell id="vQja3zcPBgWwOKAa9QhB-91" value="" style="edgeStyle=none;html=1;endArrow=block;endFill=0;endSize=12;verticalAlign=bottom;rounded=0;entryX=0;entryY=0.5;entryDx=0;entryDy=0;exitX=1;exitY=0.5;exitDx=0;exitDy=0;labelBackgroundColor=none;fontColor=default;" parent="1" source="vQja3zcPBgWwOKAa9QhB-89" target="vQja3zcPBgWwOKAa9QhB-84" edge="1">
          <mxGeometry width="160" relative="1" as="geometry">
            <mxPoint x="550" y="1210" as="sourcePoint" />
            <mxPoint x="710" y="1210" as="targetPoint" />
          </mxGeometry>
        </mxCell>
        <mxCell id="vQja3zcPBgWwOKAa9QhB-94" value="&lt;font style=&quot;font-size: 23px;&quot;&gt;Tunis Track&lt;/font&gt;" style="shape=rect;html=1;verticalAlign=top;fontStyle=1;whiteSpace=wrap;align=center;fillColor=none;labelBackgroundColor=none;rounded=0;" parent="1" vertex="1">
          <mxGeometry x="100" y="100" width="860" height="1330" as="geometry" />
        </mxCell>
      </root>
    </mxGraphModel>
  </diagram>
</mxfile>
